<svg width="15" height="8" viewBox="0 0 15 8" fill="none" xmlns="http://www.w3.org/2000/svg">
<path d="M14.5707 0.305288C14.3715 0.117817 14.1014 0.0125018 13.8198 0.0125018C13.5382 0.0125018 13.2681 0.117817 13.0689 0.305288L8.19832 4.89129C7.99639 5.07378 7.72734 5.17568 7.44745 5.17568C7.16755 5.17568 6.8985 5.07378 6.69657 4.89129L1.82598 0.305288C1.72801 0.209778 1.61082 0.133596 1.48124 0.0811869C1.35167 0.0287779 1.2123 0.00119157 1.07129 3.77571e-05C0.930266 -0.00111606 0.790415 0.0241854 0.659892 0.0744663C0.529369 0.124747 0.410788 0.199 0.311069 0.292893C0.21135 0.386786 0.132489 0.498437 0.0790875 0.621334C0.0256863 0.74423 -0.00118532 0.87591 4.01001e-05 1.00869C0.00126552 1.14147 0.0305637 1.27269 0.086225 1.39469C0.141886 1.5167 0.222796 1.62704 0.324234 1.71929L5.19376 6.30529C5.48963 6.58392 5.8409 6.80494 6.2275 6.95574C6.6141 7.10653 7.02846 7.18415 7.44692 7.18415C7.86538 7.18415 8.27974 7.10653 8.66634 6.95574C9.05293 6.80494 9.4042 6.58392 9.70007 6.30529L14.5707 1.71929C14.7698 1.53176 14.8816 1.27745 14.8816 1.01229C14.8816 0.747124 14.7698 0.492816 14.5707 0.305288Z" fill="black"/>
</svg>
