<svg width="29" height="29" viewBox="0 0 29 29" fill="none" xmlns="http://www.w3.org/2000/svg">
<path d="M14.5 0C6.48624 0 0 6.48513 0 14.5C0 17.0433 0.663315 19.5273 1.9229 21.7181L0.0546494 27.5198C-0.0756684 27.9243 0.0314179 28.3677 0.331879 28.6681C0.629463 28.9657 1.07175 29.0768 1.48018 28.9454L7.28186 27.0771C9.4727 28.3367 11.9567 29 14.5 29C22.5138 29 29 22.5149 29 14.5C29 6.48624 22.5149 0 14.5 0ZM14.5 26.7344C12.2027 26.7344 9.96344 26.0934 8.02416 24.8807C7.74516 24.7064 7.39868 24.6592 7.07632 24.763L2.88823 26.1118L4.23698 21.9237C4.3392 21.606 4.29606 21.259 4.11906 20.9758C2.90659 19.0366 2.26562 16.7973 2.26562 14.5C2.26562 7.75401 7.75401 2.26562 14.5 2.26562C21.246 2.26562 26.7344 7.75401 26.7344 14.5C26.7344 21.246 21.246 26.7344 14.5 26.7344ZM15.916 14.5C15.916 15.2819 15.2821 15.916 14.5 15.916C13.7179 15.916 13.084 15.2819 13.084 14.5C13.084 13.7179 13.7179 13.084 14.5 13.084C15.2821 13.084 15.916 13.7179 15.916 14.5ZM21.5801 14.5C21.5801 15.2819 20.9462 15.916 20.1641 15.916C19.3819 15.916 18.748 15.2819 18.748 14.5C18.748 13.7179 19.3819 13.084 20.1641 13.084C20.9462 13.084 21.5801 13.7179 21.5801 14.5ZM10.252 14.5C10.252 15.2819 9.61806 15.916 8.83594 15.916C8.05403 15.916 7.41992 15.2819 7.41992 14.5C7.41992 13.7179 8.05403 13.084 8.83594 13.084C9.61806 13.084 10.252 13.7179 10.252 14.5Z" fill="black"/>
</svg>
