<svg xmlns="http://www.w3.org/2000/svg" width="20.002" height="20" viewBox="0 0 20.002 20"><defs><style>.a{fill:#900;}</style></defs><g transform="translate(-3 -3.003)"><path class="a" d="M3.846,20A3.865,3.865,0,0,1,0,16.154V4.614A3.865,3.865,0,0,1,3.846.767H5.385a.77.77,0,0,1,0,1.539H3.846A2.318,2.318,0,0,0,1.539,4.614v11.54a2.318,2.318,0,0,0,2.308,2.308H16.156a.773.773,0,0,0,.769-.769V15.385H13.848a3.077,3.077,0,1,1,0-6.155h5.385A.772.772,0,0,1,20,10v4.615a.773.773,0,0,1-.769.77h-.77v2.308A2.318,2.318,0,0,1,16.156,20Zm8.463-7.693a1.546,1.546,0,0,0,1.538,1.539h4.615V10.768H13.848A1.546,1.546,0,0,0,12.309,12.307Zm4.615-5.385V6.152a.773.773,0,0,0-.769-.769H3.846A.762.762,0,0,1,3.569,3.9l10-3.847a.773.773,0,0,1,.992.431l1.346,3.362h.247a2.311,2.311,0,0,1,2.308,2.308v.769a.769.769,0,0,1-1.539,0ZM7.993,3.844h6.255L13.416,1.76Z" transform="translate(3 3.003)"/></g></svg>