<svg xmlns="http://www.w3.org/2000/svg" width="14.999" height="20" viewBox="0 0 14.999 20"><defs><style>.a{fill:#900;}</style></defs><g transform="translate(-3 0)"><path class="a" d="M9.255,19.854l-1.75-1.2-1.751,1.2a.833.833,0,0,1-.941,0l-1.755-1.2L1.3,19.854A.834.834,0,0,1,0,19.166v-15A4.172,4.172,0,0,1,4.167,0h6.666A4.172,4.172,0,0,1,15,4.167v15a.833.833,0,0,1-1.3.687l-1.75-1.2-1.75,1.2a.834.834,0,0,1-.942,0Zm-1.282-2.9,1.751,1.2,1.75-1.2a.832.832,0,0,1,.943,0l.917.626V4.167a2.5,2.5,0,0,0-2.5-2.5H4.167a2.5,2.5,0,0,0-2.5,2.5V17.583l.923-.626a.831.831,0,0,1,.941,0l1.75,1.2,1.75-1.2a.831.831,0,0,1,.942,0Zm-3.806-5.29a.833.833,0,1,1,0-1.667h5a.833.833,0,0,1,0,1.667Zm0-3.334a.833.833,0,1,1,0-1.666h6.666a.833.833,0,1,1,0,1.666Z" transform="translate(3 0)"/></g></svg>