<svg xmlns="http://www.w3.org/2000/svg" width="19.738" height="20" viewBox="0 0 19.738 20"><defs><style>.a{fill:#505050;}</style></defs><g transform="translate(-3.137 0.001)"><g transform="translate(3.137 -0.001)"><path class="a" d="M22.849,14.026a2.135,2.135,0,0,0-.084-.345,2.193,2.193,0,0,0-2.433-1.42.636.636,0,0,1-.727-.529l-.527-3.374a7.359,7.359,0,0,0-5.274-5.978A2.837,2.837,0,0,0,8.2,3.242a7.1,7.1,0,0,0-3.216,7.11l.565,3.591a.64.64,0,0,1-.529.727,2.194,2.194,0,0,0-1.88,2.1A2.135,2.135,0,0,0,5.25,18.925h.022A2.189,2.189,0,0,0,5.6,18.9L7.8,18.555a2.823,2.823,0,0,0,5.231-.823l8.045-1.266A2.135,2.135,0,0,0,22.849,14.026ZM10.795,1.513a1.5,1.5,0,0,1,.224-.018,1.43,1.43,0,0,1,1.185.641H12.17a6.783,6.783,0,0,0-.8.023,7.229,7.229,0,0,0-.829.128c-.059.012-.117.029-.176.043-.224.053-.444.115-.66.188-.021.006-.043.01-.065.018A1.423,1.423,0,0,1,10.795,1.513Zm-.541,17.062a1.4,1.4,0,0,1-.838-.276l1.993-.312A1.423,1.423,0,0,1,10.254,18.576Zm11.093-3.848a.712.712,0,0,1-.5.333l-8.572,1.348-4.165.655-2.726.427a.7.7,0,0,1-.575-.164.712.712,0,0,1-.25-.551.772.772,0,0,1,.677-.7,2.064,2.064,0,0,0,1.713-2.353l-.564-3.591A5.708,5.708,0,0,1,9.266,4.255L9.3,4.241a5.693,5.693,0,0,1,2.2-.665,5.14,5.14,0,0,1,.7-.014l.117.006a5.6,5.6,0,0,1,.722.091h.023a5.914,5.914,0,0,1,4.6,4.918l.531,3.374a2.059,2.059,0,0,0,2.353,1.714.772.772,0,0,1,.86.458A.712.712,0,0,1,21.347,14.728Z" transform="translate(-3.137 0.001)"/></g></g></svg>