<svg xmlns="http://www.w3.org/2000/svg" width="20" height="20" viewBox="0 0 20 20"><defs><style>.a{fill:#9f1010;}</style></defs><g transform="translate(0.272)"><path class="a" d="M0,10A10,10,0,1,1,10,20,10.006,10.006,0,0,1,0,10Zm10.909,3.864a.682.682,0,0,0,1.364,0V12.273h1.136a2.045,2.045,0,1,0,0-4.091H11.591a.687.687,0,0,0-.682.682v5ZM9.827,11.691a.674.674,0,0,0,.4.127.7.7,0,0,0,.554-.282.718.718,0,0,0,.127-.4.7.7,0,0,0-.282-.554L9.145,9.527a2.046,2.046,0,0,0-.282-4.073H7.045a.687.687,0,0,0-.682.682v5a.682.682,0,0,0,1.364,0v-.945Zm2.445-.782V9.545h1.136a.682.682,0,0,1,0,1.364ZM7.727,8.182V6.818H8.864a.682.682,0,1,1,0,1.364Z" transform="translate(-0.272 0)"/></g></svg>