<svg xmlns="http://www.w3.org/2000/svg" width="16" height="15.999" viewBox="0 0 16 15.999"><defs><style>.a{fill:#0058e4;}</style></defs><g transform="translate(-37 -89)"><path class="a" d="M-919.428-44.287v-4.571c0-1.3,1.6-2.286,3.714-2.286s3.714.983,3.714,2.286v4.571c0,1.3-1.6,2.286-3.714,2.286S-919.428-42.984-919.428-44.287Zm1.143,0c0,.466,1,1.143,2.571,1.143s2.571-.677,2.571-1.143V-44.9a5.191,5.191,0,0,1-2.571.609,5.191,5.191,0,0,1-2.571-.609Zm0-2.285c0,.466,1,1.143,2.571,1.143s2.571-.677,2.571-1.143v-.61a5.191,5.191,0,0,1-2.571.61,5.191,5.191,0,0,1-2.571-.61Zm0-2.285c0,.465,1,1.143,2.571,1.143s2.571-.677,2.571-1.143-1-1.143-2.571-1.143S-918.286-49.324-918.286-48.858ZM-928-44.287v-4.571c0-1.3,1.6-2.286,3.714-2.286s3.714.983,3.714,2.286v4.571c0,1.3-1.6,2.286-3.714,2.286S-928-42.984-928-44.287Zm1.143,0c0,.466,1,1.143,2.571,1.143s2.572-.677,2.572-1.143V-44.9a5.192,5.192,0,0,1-2.572.609,5.191,5.191,0,0,1-2.571-.609Zm0-2.285c0,.466,1,1.143,2.571,1.143s2.572-.677,2.572-1.143v-.61a5.191,5.191,0,0,1-2.572.61,5.191,5.191,0,0,1-2.571-.61Zm0-2.285c0,.465,1,1.143,2.571,1.143s2.572-.677,2.572-1.143-1-1.143-2.572-1.143S-926.857-49.324-926.857-48.858Zm6.286-3.429V-56.05l-1.31,1.31a.572.572,0,0,1-.808,0,.571.571,0,0,1,0-.808l2.286-2.286a.574.574,0,0,1,.808,0l2.286,2.286a.571.571,0,0,1,0,.808.572.572,0,0,1-.4.167.569.569,0,0,1-.4-.167l-1.31-1.31v3.764a.572.572,0,0,1-.572.571A.572.572,0,0,1-920.572-52.287Z" transform="translate(965 147)"/></g></svg>