<svg xmlns="http://www.w3.org/2000/svg" width="16.001" height="16" viewBox="0 0 16.001 16"><defs><style>.a{fill:#0058e4;}</style></defs><g transform="translate(-3.999 -3.996)"><path class="a" d="M2.883,14.154A7.979,7.979,0,0,1,8,.036h.727a.666.666,0,0,1,.607.725.666.666,0,0,1-.727.572,6.026,6.026,0,0,0-.607,0,6.652,6.652,0,1,0,6.667,6.652,7.205,7.205,0,0,0-.133-1.21.677.677,0,0,1,1.333-.239v.034A8,8,0,0,1,2.883,14.154Zm5.7-3.983V6.347a.326.326,0,0,1,.652-.013,1.6,1.6,0,1,1,0,2.575V10.17a.326.326,0,0,1-.653,0Zm.653-2.549a.951.951,0,1,0,.951-.949A.951.951,0,0,0,9.236,7.621Zm-1.95,2.528V8.9a.983.983,0,0,0-.973-.981H5.319v2.228a.326.326,0,0,1-.653,0V4.982a.326.326,0,0,1,.326-.326H6.3A1.631,1.631,0,0,1,7.282,7.6,1.63,1.63,0,0,1,7.939,8.9v1.246a.326.326,0,0,1-.653,0ZM5.319,7.27H6.3a.981.981,0,0,0,.01-1.962H5.319Zm6.015-2.611a.676.676,0,0,1-.667-.665V1.333a.667.667,0,0,1,1.333,0V2.391L14.194.2a.669.669,0,0,1,.946.945l-2.2,2.189H14a.665.665,0,1,1,0,1.33Z" transform="translate(3.999 3.996)"/></g></svg>