<svg xmlns="http://www.w3.org/2000/svg" width="18.049" height="16" viewBox="0 0 18.049 16"><defs><style>.a{fill:#0058e4;}</style></defs><g transform="translate(0 -29)"><path class="a" d="M0,16V7.876H4.7v1.2H6.244L8.605,6.716a1.591,1.591,0,0,1,2.25,2.25L9.58,10.242a5.3,5.3,0,0,0,5.317.781l1.167-.476a1.44,1.44,0,0,1,1.526,2.387l-.042.029c-.01.007-1.029.694-2.095,1.416a8.18,8.18,0,0,1-4.6,1.413c-.827.043-5.247-.7-6.161-.808V16Zm1.06-1.06H3.638V8.935H1.06ZM4.7,13.912l5.129.745A7.125,7.125,0,0,0,14.859,13.5c.93-.63,1.825-1.234,2.046-1.383a.38.38,0,0,0-.439-.59L15.3,12a6.351,6.351,0,0,1-6.86-1.369l-.375-.375,2.043-2.043a.532.532,0,0,0-.752-.752L6.683,10.137H4.7Zm7.523-7.766A2.4,2.4,0,0,1,13.772,3.9a2.4,2.4,0,1,1,2.726.747,2.4,2.4,0,1,1-4.277,1.5Zm1.06,0A1.342,1.342,0,1,0,14.622,4.8,1.344,1.344,0,0,0,13.28,6.146ZM14.3,2.4A1.342,1.342,0,1,0,15.647,1.06,1.344,1.344,0,0,0,14.3,2.4Zm-7.276,0a2.4,2.4,0,1,1,2.4,2.4A2.4,2.4,0,0,1,7.029,2.4Zm1.06,0A1.342,1.342,0,1,0,9.43,1.06,1.344,1.344,0,0,0,8.088,2.4Z" transform="translate(0 29)"/></g></svg>