<svg xmlns="http://www.w3.org/2000/svg" width="16" height="16" viewBox="0 0 16 16"><defs><style>.a{fill:#0058e4;}</style></defs><g transform="translate(-1.025 -1.025)"><path class="a" d="M10.939,13.762l2.694,2.7a2.015,2.015,0,0,0,2.793,0,1.936,1.936,0,0,0,0-2.8l-2.694-2.7a6.908,6.908,0,0,0,.8-3.2,1.879,1.879,0,0,0-.05-.55l1.846-1.85a.494.494,0,1,0-.7-.7l-1.347,1.35a6.541,6.541,0,0,0-1.746-3,6.745,6.745,0,0,0-9.528,9.55A6.7,6.7,0,0,0,10.939,13.762Zm4.739.6a.989.989,0,0,1-1.4,1.4l-2.544-2.55a8.677,8.677,0,0,0,.748-.65,8.685,8.685,0,0,0,.648-.75ZM3.706,3.713a5.731,5.731,0,0,1,9.727,3.15l-1,1L10.79,6.213a.481.481,0,0,0-.7,0L7.5,8.813,6.35,7.663a.481.481,0,0,0-.7,0l-2,2a.494.494,0,1,0,.7.7L6,8.713c.748.6,1.3,1.7,1.846,1.15l2.594-2.6,1.646,1.65a.481.481,0,0,0,.7,0l.7-.7a5.876,5.876,0,0,1-1.646,3.65,5.756,5.756,0,0,1-8.131-8.15Z" transform="translate(0)"/></g></svg>