<svg xmlns="http://www.w3.org/2000/svg" width="18" height="24" viewBox="0 0 18 24"><defs><style>.a{fill:#a8a8a8;}</style></defs><g transform="translate(-3 0)"><path class="a" d="M-678-740a7,7,0,0,0-7-7,7,7,0,0,0-7,7,1,1,0,0,1-1,1,1,1,0,0,1-1-1,9.01,9.01,0,0,1,9-9,9.01,9.01,0,0,1,9,9,1,1,0,0,1-1,1A1,1,0,0,1-678-740Zm-13-17a6,6,0,0,1,6-6,6,6,0,0,1,6,6,6,6,0,0,1-6,6A6.007,6.007,0,0,1-691-757Zm2,0a4,4,0,0,0,4,4,4,4,0,0,0,4-4,4,4,0,0,0-4-4A4,4,0,0,0-689-757Z" transform="translate(697 763)"/></g></svg>