<svg xmlns="http://www.w3.org/2000/svg" width="19" height="19" viewBox="0 0 19 19"><path d="M5.946,19A5.937,5.937,0,0,1,4.333,7.349a5.837,5.837,0,0,1,3.074-.038L13.67,1.052A3.565,3.565,0,0,1,16.209,0h0a2.8,2.8,0,0,1,2.8,2.8,3.568,3.568,0,0,1-1.052,2.539l-.532.532a1.6,1.6,0,0,1-1.12.463H15.049v.792a1.584,1.584,0,0,1-1.584,1.583h-.792V9.964a1.572,1.572,0,0,1-.464,1.119l-.515.515a5.8,5.8,0,0,1-.037,3.072,5.962,5.962,0,0,1-5.091,4.3A6.064,6.064,0,0,1,5.946,19Zm0-10.292a4.354,4.354,0,1,0,4.189,5.534,4.273,4.273,0,0,0-.079-2.612.791.791,0,0,1,.188-.819l.846-.846V8.708a1.584,1.584,0,0,1,1.584-1.583h.792V6.333A1.584,1.584,0,0,1,15.049,4.75h1.256l.532-.532A1.994,1.994,0,0,0,17.425,2.8,1.217,1.217,0,0,0,16.21,1.583a2,2,0,0,0-1.42.588l-6.6,6.595a.792.792,0,0,1-.82.188,4.327,4.327,0,0,0-1.43-.245ZM3.962,14.25a.792.792,0,1,0,.792-.792A.792.792,0,0,0,3.962,14.25Z" transform="translate(-0.009 0)"/></svg>