<svg xmlns="http://www.w3.org/2000/svg" width="18.218" height="19" viewBox="0 0 18.218 19"><path d="M4.727,17.641a.792.792,0,0,1-.408-1.47c2.8-1.685,2.8-5.3,2.8-7.463a2.375,2.375,0,1,1,4.75,0,.792.792,0,0,1-1.583,0,.792.792,0,1,0-1.583,0c0,2.333,0,6.676-3.573,8.821a.792.792,0,0,1-.407.112Zm3.929,1.125a11.882,11.882,0,0,0,3.136-7.616.792.792,0,0,0-.721-.859.778.778,0,0,0-.856.721,10.224,10.224,0,0,1-2.682,6.634.792.792,0,0,0,1.123,1.116Zm4.116-.147A14.085,14.085,0,0,0,13.966,16.1a.792.792,0,0,0-1.489-.537A12.55,12.55,0,0,1,11.418,17.8a.792.792,0,0,0,1.354.822Zm1.872-5.01a24.9,24.9,0,0,0,.4-4.9A5.541,5.541,0,0,0,5.373,5.013.792.792,0,1,0,6.551,6.069a3.958,3.958,0,0,1,6.906,2.638,23.5,23.5,0,0,1-.366,4.6.792.792,0,0,0,.625.928.775.775,0,0,0,.153.015A.792.792,0,0,0,14.645,13.609Zm-9.1-4.9A3.958,3.958,0,0,1,5.6,8.048a.792.792,0,1,0-1.559-.264,5.518,5.518,0,0,0-.079.924c0,3.677-1.066,5.541-3.166,5.541a.792.792,0,0,0,0,1.583C3.854,15.832,5.541,13.3,5.541,8.708Zm10.845,9.827a23.558,23.558,0,0,0,1.821-9.827,8.6,8.6,0,0,0-.871-3.795.792.792,0,1,0-1.425.693,7.045,7.045,0,0,1,.712,3.1,22.094,22.094,0,0,1-1.677,9.172.792.792,0,0,0,.4,1.048.779.779,0,0,0,.327.071.792.792,0,0,0,.717-.464ZM2.375,11.082V8.708A7.132,7.132,0,0,1,9.5,1.583a7.054,7.054,0,0,1,4.275,1.425.792.792,0,0,0,.95-1.267A8.629,8.629,0,0,0,9.5,0,8.718,8.718,0,0,0,.792,8.708v2.375a.792.792,0,1,0,1.583,0Z" transform="translate(0 0)"/></svg>