<svg width="26" height="24" viewBox="0 0 26 24" fill="none" xmlns="http://www.w3.org/2000/svg">
<path d="M20.3893 2H19.3272V1C19.3272 0.734784 19.2153 0.48043 19.0162 0.292893C18.817 0.105357 18.5468 0 18.2652 0C17.9835 0 17.7134 0.105357 17.5142 0.292893C17.315 0.48043 17.2031 0.734784 17.2031 1V2H8.70666V1C8.70666 0.734784 8.59476 0.48043 8.39559 0.292893C8.19641 0.105357 7.92628 0 7.6446 0C7.36293 0 7.09279 0.105357 6.89361 0.292893C6.69444 0.48043 6.58255 0.734784 6.58255 1V2H5.52049C4.11263 2.00159 2.76292 2.52888 1.76741 3.46622C0.771908 4.40356 0.211891 5.67441 0.210205 7L0.210205 19C0.211891 20.3256 0.771908 21.5964 1.76741 22.5338C2.76292 23.4711 4.11263 23.9984 5.52049 24H20.3893C21.7971 23.9984 23.1469 23.4711 24.1424 22.5338C25.1379 21.5964 25.6979 20.3256 25.6996 19V7C25.6979 5.67441 25.1379 4.40356 24.1424 3.46622C23.1469 2.52888 21.7971 2.00159 20.3893 2ZM2.33432 7C2.33432 6.20435 2.67 5.44129 3.26753 4.87868C3.86505 4.31607 4.67546 4 5.52049 4H20.3893C21.2343 4 22.0447 4.31607 22.6422 4.87868C23.2398 5.44129 23.5755 6.20435 23.5755 7V8H2.33432V7ZM20.3893 22H5.52049C4.67546 22 3.86505 21.6839 3.26753 21.1213C2.67 20.5587 2.33432 19.7956 2.33432 19V10H23.5755V19C23.5755 19.7956 23.2398 20.5587 22.6422 21.1213C22.0447 21.6839 21.2343 22 20.3893 22Z" fill="black"/>
<path d="M12.9549 16.5C13.8347 16.5 14.548 15.8284 14.548 15C14.548 14.1716 13.8347 13.5 12.9549 13.5C12.0751 13.5 11.3618 14.1716 11.3618 15C11.3618 15.8284 12.0751 16.5 12.9549 16.5Z" fill="black"/>
<path d="M7.6446 16.5C8.52444 16.5 9.23768 15.8284 9.23768 15C9.23768 14.1716 8.52444 13.5 7.6446 13.5C6.76476 13.5 6.05151 14.1716 6.05151 15C6.05151 15.8284 6.76476 16.5 7.6446 16.5Z" fill="black"/>
<path d="M18.2652 16.5C19.145 16.5 19.8583 15.8284 19.8583 15C19.8583 14.1716 19.145 13.5 18.2652 13.5C17.3854 13.5 16.6721 14.1716 16.6721 15C16.6721 15.8284 17.3854 16.5 18.2652 16.5Z" fill="black"/>
</svg>
