<svg xmlns="http://www.w3.org/2000/svg" width="25.029" height="30" viewBox="0 0 25.029 30"><defs><style>.a{fill:#041875;}.b{fill:#4361ee;}</style></defs><g transform="translate(0 0)"><path class="a" d="M94.257,14.451a6.991,6.991,0,0,0,5.109-2.117,6.991,6.991,0,0,0,2.117-5.109,6.992,6.992,0,0,0-2.117-5.109,7.224,7.224,0,0,0-10.218,0,6.992,6.992,0,0,0-2.117,5.109,6.991,6.991,0,0,0,2.117,5.109A6.993,6.993,0,0,0,94.257,14.451Zm0,0" transform="translate(-81.932 0)"/><path class="b" d="M24.968,255.894a17.848,17.848,0,0,0-.243-1.9,14.936,14.936,0,0,0-.466-1.906,9.414,9.414,0,0,0-.783-1.777,6.708,6.708,0,0,0-1.181-1.54,5.209,5.209,0,0,0-1.7-1.066,5.865,5.865,0,0,0-2.167-.392,2.2,2.2,0,0,0-1.174.5c-.352.23-.764.5-1.223.789a7.01,7.01,0,0,1-1.583.7,6.147,6.147,0,0,1-3.872,0A6.994,6.994,0,0,1,9,248.6c-.455-.291-.867-.556-1.225-.789a2.2,2.2,0,0,0-1.174-.5,5.858,5.858,0,0,0-2.166.393,5.2,5.2,0,0,0-1.7,1.066,6.708,6.708,0,0,0-1.181,1.539,9.432,9.432,0,0,0-.783,1.778A14.97,14.97,0,0,0,.3,254a17.784,17.784,0,0,0-.243,1.9c-.04.574-.06,1.17-.06,1.772a4.982,4.982,0,0,0,1.479,3.769,5.326,5.326,0,0,0,3.812,1.391H19.737a5.325,5.325,0,0,0,3.812-1.391,4.979,4.979,0,0,0,1.48-3.769c0-.6-.021-1.2-.061-1.772Zm0,0" transform="translate(0 -232.825)"/></g></svg>