<svg xmlns="http://www.w3.org/2000/svg" width="25.029" height="30" viewBox="0 0 25.029 30"><defs><style>.a{fill:gray;}</style></defs><g transform="translate(0 0)"><path class="a" d="M5.292,30A5.325,5.325,0,0,1,1.48,28.61,4.981,4.981,0,0,1,0,24.841c0-.6.02-1.2.06-1.772a17.732,17.732,0,0,1,.243-1.9,14.967,14.967,0,0,1,.466-1.906,9.431,9.431,0,0,1,.783-1.778A6.7,6.7,0,0,1,2.734,15.95a5.205,5.205,0,0,1,1.7-1.066A5.858,5.858,0,0,1,6.6,14.491a2.2,2.2,0,0,1,1.174.5c.357.233.769.5,1.224.789a6.989,6.989,0,0,0,1.582.7,6.147,6.147,0,0,0,3.872,0,7.012,7.012,0,0,0,1.583-.7c.46-.294.871-.559,1.223-.789a2.2,2.2,0,0,1,1.174-.5,5.865,5.865,0,0,1,2.167.392,5.209,5.209,0,0,1,1.7,1.066,6.7,6.7,0,0,1,1.181,1.54,9.42,9.42,0,0,1,.784,1.778,14.936,14.936,0,0,1,.466,1.906,17.848,17.848,0,0,1,.243,1.9c.04.571.06,1.168.061,1.772a4.98,4.98,0,0,1-1.48,3.769A5.326,5.326,0,0,1,19.737,30ZM5.078,16.518a3.454,3.454,0,0,0-1.129.7,4.968,4.968,0,0,0-.868,1.138A7.679,7.679,0,0,0,2.443,19.8a13.208,13.208,0,0,0-.41,1.68,15.992,15.992,0,0,0-.22,1.707c-.037.533-.056,1.088-.056,1.65a3.253,3.253,0,0,0,.934,2.5,3.586,3.586,0,0,0,2.6.906H19.737a3.586,3.586,0,0,0,2.6-.906h0a3.253,3.253,0,0,0,.934-2.5c0-.564-.019-1.119-.056-1.649h0A16.122,16.122,0,0,0,23,21.483a13.165,13.165,0,0,0-.41-1.68,7.654,7.654,0,0,0-.638-1.445,4.953,4.953,0,0,0-.868-1.138,3.46,3.46,0,0,0-1.129-.7,4.047,4.047,0,0,0-1.385-.267c-.062.033-.171.1-.349.211-.361.236-.766.5-1.238.8a8.722,8.722,0,0,1-1.988.889,7.9,7.9,0,0,1-4.954,0A8.71,8.71,0,0,1,8.05,17.26c-.461-.294-.877-.563-1.238-.8-.178-.116-.287-.178-.349-.211A4.045,4.045,0,0,0,5.078,16.518Zm2.138-4.184A6.992,6.992,0,0,1,5.1,7.225,6.992,6.992,0,0,1,7.216,2.117,6.991,6.991,0,0,1,12.325,0a6.993,6.993,0,0,1,5.109,2.116,6.992,6.992,0,0,1,2.117,5.109,6.992,6.992,0,0,1-2.117,5.109,6.992,6.992,0,0,1-5.109,2.117A6.994,6.994,0,0,1,7.216,12.334ZM8.46,3.36a5.223,5.223,0,0,0-1.6,3.866,5.223,5.223,0,0,0,1.6,3.866,5.224,5.224,0,0,0,3.866,1.6,5.223,5.223,0,0,0,3.866-1.6,5.224,5.224,0,0,0,1.6-3.866,5.224,5.224,0,0,0-1.6-3.866,5.224,5.224,0,0,0-3.866-1.6A5.222,5.222,0,0,0,8.46,3.36Z" transform="translate(0 0)"/></g></svg>