<svg xmlns="http://www.w3.org/2000/svg" width="43" height="49" viewBox="0 0 43 49"><defs><style>.a,.c{fill:#4361ee;}.b{fill:#041875;}.c{font-size:10px;font-family:KumbhSans-Regular, Kumbh Sans;}</style></defs><g transform="translate(-601 -448)"><g transform="translate(604 412.952)"><path class="a" d="M36.153,35.049h0a1.268,1.268,0,0,0-.928.408,1.444,1.444,0,0,0-.39,1v21.07a1.371,1.371,0,0,0,1.326,1.4c3.082.008,8.245.689,11.807,4.645V41.524a1.41,1.41,0,0,0-.182-.712C44.86,35.816,39.242,35.057,36.153,35.049Z" transform="translate(-30.494 -0.001)"/><path class="a" d="M169.884,57.524V36.453a1.444,1.444,0,0,0-.39-1,1.268,1.268,0,0,0-.928-.408h0c-3.089.008-8.707.767-11.63,5.764a1.41,1.41,0,0,0-.182.712V63.574c3.562-3.956,8.725-4.638,11.807-4.645A1.371,1.371,0,0,0,169.884,57.524Z" transform="translate(-137.223)"/><path class="b" d="M185.8,71.8h-.96V89.417A3.5,3.5,0,0,1,181.459,93c-2.614.007-6.924.549-9.977,3.615,5.279-1.372,10.845-.48,14.017.287a1.264,1.264,0,0,0,1.123-.272,1.431,1.431,0,0,0,.5-1.1V73.206A1.368,1.368,0,0,0,185.8,71.8Z" transform="translate(-150.119 -31.894)"/><path class="b" d="M2.284,89.417V71.8h-.96A1.368,1.368,0,0,0,0,73.206V95.537a1.43,1.43,0,0,0,.5,1.1,1.263,1.263,0,0,0,1.123.272c3.172-.767,8.737-1.659,14.017-.287C12.584,93.553,8.274,93.01,5.66,93A3.5,3.5,0,0,1,2.284,89.417Z" transform="translate(0 -31.894)"/></g><text class="c" transform="translate(601 494)"><tspan x="0" y="0">Pelajaran</tspan></text></g></svg>