<svg xmlns="http://www.w3.org/2000/svg" width="37" height="30" viewBox="0 0 37 30"><defs><style>.a{fill:gray;}</style></defs><g transform="translate(0 -28.39)"><path class="a" d="M35.758,32.446H33.165V29.755a1.244,1.244,0,0,0-1.058-1.231,19.019,19.019,0,0,0-5.675.171A12.74,12.74,0,0,0,18.5,33.146,12.74,12.74,0,0,0,10.568,28.7a19.023,19.023,0,0,0-5.675-.171,1.244,1.244,0,0,0-1.058,1.231v2.691H1.242A1.243,1.243,0,0,0,0,33.691V57.145A1.242,1.242,0,0,0,1.65,58.32c.093-.032,9.4-3.215,16.335-.043a1.238,1.238,0,0,0,1.031,0c6.918-3.163,16.242.011,16.335.043A1.242,1.242,0,0,0,37,57.145V33.691A1.243,1.243,0,0,0,35.758,32.446ZM2.483,55.48V34.936H3.835V51.511a1.244,1.244,0,0,0,1.424,1.231c.069-.01,5.462-.752,9.4,1.958A30.158,30.158,0,0,0,2.483,55.48Zm14.775-1.9a13.364,13.364,0,0,0-6.69-3.126,19.438,19.438,0,0,0-3.461-.305c-.286,0-.55.006-.789.016V30.9h0c2.386-.108,8.191.148,10.94,4.819Zm2.483-17.861c2.739-4.651,8.553-4.918,10.94-4.816V50.162a19.635,19.635,0,0,0-4.25.29,13.363,13.363,0,0,0-6.69,3.126V35.717ZM22.334,54.7c3.941-2.712,9.338-1.969,9.405-1.959a1.243,1.243,0,0,0,1.426-1.231V34.936h1.352V55.48A30.151,30.151,0,0,0,22.334,54.7Z" transform="translate(0 0)"/></g></svg>