<svg xmlns="http://www.w3.org/2000/svg" width="30" height="30" viewBox="0 0 30 30"><defs><style>.a{fill:gray;}</style></defs><g transform="translate(-6 -6)"><path class="a" d="M20.595,6A14.8,14.8,0,0,1,35.189,21,15.136,15.136,0,0,1,32.2,30.137a16.985,16.985,0,0,0,3.42,2.7.847.847,0,0,1,.127,1.311c-2.349,2.29-5.863,2.447-8.8.366A14.248,14.248,0,0,1,20.595,36,14.8,14.8,0,0,1,6,21,14.8,14.8,0,0,1,20.595,6Zm0,1.667A13.157,13.157,0,0,0,7.622,21,13.157,13.157,0,0,0,20.595,34.333a12.729,12.729,0,0,0,6.055-1.526.793.793,0,0,1,.869.077,5.413,5.413,0,0,0,6.262.723,13.7,13.7,0,0,1-3.25-2.885.851.851,0,0,1-.014-1.094A13.5,13.5,0,0,0,33.568,21,13.157,13.157,0,0,0,20.595,7.667Zm5.676,15a.822.822,0,0,1,.811.833.8.8,0,0,1-.811.833H14.919a.834.834,0,0,1,0-1.667Zm0-5a.834.834,0,0,1,0,1.667H14.919a.834.834,0,0,1,0-1.667Z"/></g></svg>