<svg xmlns="http://www.w3.org/2000/svg" width="30" height="30" viewBox="0 0 30 30"><defs><style>.a{fill:#041875;}.b{fill:#4361ee;}</style></defs><g transform="translate(-713 -448)"><path class="a" d="M20.27,18.333H8.919a.823.823,0,0,1-.811-.833.815.815,0,0,1,.811-.832H20.27a.823.823,0,0,1,.811.832A.8.8,0,0,1,20.27,18.333Zm0-5H8.919a.834.834,0,0,1,0-1.667H20.27a.834.834,0,0,1,0,1.667Z" transform="translate(713 448)"/><g transform="translate(707 442)"><path class="b" d="M20.595,6A14.8,14.8,0,0,1,35.189,21,15.136,15.136,0,0,1,32.2,30.137a16.985,16.985,0,0,0,3.42,2.7.847.847,0,0,1,.127,1.311c-2.349,2.29-5.863,2.447-8.8.366A14.248,14.248,0,0,1,20.595,36,14.8,14.8,0,0,1,6,21,14.8,14.8,0,0,1,20.595,6ZM26.27,22.667H14.919a.834.834,0,0,0,0,1.667H26.27a.8.8,0,0,0,.811-.833A.822.822,0,0,0,26.27,22.667Zm0-5H14.919a.834.834,0,0,0,0,1.667H26.27a.834.834,0,0,0,0-1.667Z"/></g></g></svg>