<svg xmlns="http://www.w3.org/2000/svg" width="16.436" height="20" viewBox="0 0 16.436 20"><g transform="translate(-40.218 0)"><path d="M4.352,19.815l-1.69-1.5L1.25,19.583a.717.717,0,0,1-.787.139A.81.81,0,0,1,0,19.074V4.468A2.014,2.014,0,0,1,1.968,2.547h.81V1.76A1.884,1.884,0,0,1,4.745,0H14.7c.039,0,.079,0,.118,0A1.69,1.69,0,0,1,16.435,1.76V16.343a.671.671,0,0,1-.37.648.416.416,0,0,1-.231.046.671.671,0,0,1-.486-.185l-1.412-1.273-.278.208v3.287a.694.694,0,0,1-.347.648.555.555,0,0,1-.694-.139L11.226,18.31l-1.69,1.5a.694.694,0,0,1-.926,0l-1.667-1.5-1.667,1.5A.741.741,0,0,1,4.815,20,.694.694,0,0,1,4.352,19.815Zm3.055-2.338,1.643,1.5,1.69-1.5a.648.648,0,0,1,.9.023l1.088,1.065V4.468a.9.9,0,0,0-.81-1H1.967a1.088,1.088,0,0,0-1.042,1v14.1l1.2-1.065a.764.764,0,0,1,1-.023l1.69,1.5,1.667-1.5a.741.741,0,0,1,.926,0Zm6.944-2.708,1.157,1.065V1.76a.753.753,0,0,0,0-.121A.764.764,0,0,0,14.7.927H4.745A.962.962,0,0,0,3.7,1.76v.787h8.217a1.823,1.823,0,0,1,1.736,1.921V14.607a2.212,2.212,0,0,1,.312-.031A.453.453,0,0,1,14.351,14.769ZM4.074,13.8a.463.463,0,1,1,0-.926H9.814a.463.463,0,0,1,0,.926Zm0-3.009a.463.463,0,1,1,0-.926H9.814a.463.463,0,0,1,0,.926Zm0-3.009a.463.463,0,1,1,0-.926H7.037a.463.463,0,0,1,0,.926Z" transform="translate(40.218 0)"/></g></svg>